<svg width="1135" height="710" viewBox="0 0 1135 710" fill="none" xmlns="http://www.w3.org/2000/svg">
<g id="undraw_destinations_fpv7 1">
<g clip-path="url(#clip0)">
<g id="background" filter="url(#filter0_d)">
<path d="M1118.26 286.728C1076.63 123.042 932.801 4.88347 763.971 0.144239C674.716 -2.36125 580.795 27.2407 512.413 130.829C390.173 316.004 519.925 443.966 610.384 504.77C654.087 534.206 693.466 569.599 727.38 609.926C788.482 682.433 906.029 772.534 1046.02 631.36C1147.49 529.036 1145.99 395.759 1118.26 286.728Z" fill="url(#paint0_linear)"/>
</g>
<g id="first_jump">
<path id="Vector" d="M156.24 410.826C155.118 409.165 154.016 407.46 152.962 405.758L154.664 404.705C155.703 406.386 156.791 408.068 157.897 409.707L156.24 410.826Z" fill="#3F3D56"/>
<path id="first_jump_2" d="M146.932 395.039C145.077 391.398 143.353 387.638 141.808 383.861L143.659 383.103C145.184 386.829 146.884 390.539 148.714 394.131L146.932 395.039ZM137.628 372.296C136.401 368.403 135.323 364.409 134.422 360.426L136.373 359.984C137.261 363.914 138.325 367.854 139.536 371.695L137.628 372.296ZM132.21 348.33C131.644 344.294 131.237 340.179 131.002 336.097L132.999 335.981C133.23 340.009 133.632 344.07 134.191 348.052L132.21 348.33ZM132.793 323.85L130.794 323.803C130.89 319.715 131.156 315.588 131.583 311.537L133.572 311.747C133.15 315.744 132.888 319.816 132.793 323.85V323.85ZM135.34 299.75L133.375 299.377C134.137 295.366 135.076 291.338 136.166 287.405L138.094 287.939C137.018 291.82 136.092 295.793 135.34 299.75V299.75ZM141.818 276.397L139.942 275.705C141.356 271.874 142.949 268.054 144.677 264.35L146.49 265.196C144.785 268.849 143.213 272.618 141.818 276.397V276.397ZM415.722 270.215C414.159 266.508 412.419 262.817 410.551 259.244L412.323 258.318C414.217 261.939 415.98 265.68 417.565 269.438L415.722 270.215ZM152.071 254.421L150.335 253.429C152.36 249.886 154.56 246.381 156.873 243.012L158.521 244.144C156.24 247.468 154.069 250.926 152.071 254.421ZM404.491 248.737C402.337 245.335 400.015 241.98 397.587 238.764L399.184 237.559C401.644 240.819 403.998 244.22 406.181 247.667L404.491 248.737ZM165.794 234.432L164.244 233.169C166.824 230.003 169.566 226.907 172.395 223.964L173.837 225.349C171.045 228.253 168.339 231.309 165.794 234.432ZM389.889 229.39C387.207 226.384 384.367 223.452 381.448 220.677L382.827 219.227C385.784 222.04 388.663 225.012 391.381 228.058L389.889 229.39ZM182.595 216.956L181.272 215.457C184.332 212.756 187.542 210.148 190.814 207.706L192.01 209.308C188.782 211.718 185.615 214.291 182.595 216.956ZM372.323 212.683C369.186 210.155 365.905 207.725 362.572 205.464L363.695 203.808C367.073 206.101 370.398 208.563 373.578 211.125L372.323 212.683ZM202.018 202.46L200.957 200.765C204.42 198.599 208.013 196.553 211.637 194.682L212.554 196.46C208.979 198.305 205.435 200.324 202.018 202.46ZM352.262 199.07C348.748 197.087 345.113 195.229 341.458 193.548L342.294 191.73C345.999 193.435 349.683 195.318 353.245 197.327L352.262 199.07ZM223.547 191.35L222.779 189.503C226.548 187.938 230.428 186.512 234.31 185.264L234.921 187.169C231.092 188.399 227.265 189.806 223.547 191.35ZM330.235 188.937C326.45 187.563 322.559 186.331 318.669 185.275L319.193 183.345C323.136 184.415 327.081 185.664 330.918 187.057L330.235 188.937ZM246.612 183.943L246.161 181.994C250.132 181.074 254.197 180.307 258.24 179.717L258.529 181.696C254.54 182.279 250.531 183.035 246.612 183.943V183.943ZM306.839 182.584C302.886 181.856 298.845 181.283 294.83 180.881L295.029 178.891C299.099 179.298 303.194 179.879 307.201 180.618L306.839 182.584ZM270.591 180.438L270.465 178.442C274.533 178.185 278.681 178.094 282.756 178.168L282.72 180.168C278.695 180.094 274.606 180.185 270.591 180.438V180.438Z" fill="#3F3D56"/>
<path id="Vector_2" d="M421.746 287.424C421.21 285.521 420.628 283.602 420.015 281.722L421.917 281.102C422.538 283.008 423.128 284.953 423.67 286.882L421.746 287.424Z" fill="#3F3D56"/>
</g>
<g id="second_jump">
<path id="Vector_3" d="M409.55 175.423H407.55C407.55 173.422 407.585 171.391 407.655 169.388L409.654 169.457C409.585 171.438 409.55 173.445 409.55 175.423Z" fill="#3F3D56"/>
<g id="second_jump_2">
<path id="second_jump_3" d="M410.502 157.431L408.513 157.219C408.941 153.191 409.521 149.131 410.236 145.15L412.205 145.504C411.498 149.437 410.925 153.451 410.502 157.431ZM414.76 133.73L412.822 133.236C413.823 129.31 414.98 125.375 416.261 121.538L418.158 122.171C416.893 125.963 415.75 129.851 414.76 133.73V133.73ZM733.723 112.629C732.228 108.918 730.578 105.215 728.82 101.624L730.617 100.745C732.396 104.379 734.064 108.126 735.578 111.882L733.723 112.629ZM422.385 110.876L420.539 110.108C422.094 106.37 423.806 102.639 425.629 99.0184L427.416 99.9178C425.614 103.496 423.922 107.183 422.385 110.876V110.876ZM723.139 90.9979C721.128 87.5419 718.966 84.1127 716.711 80.806L718.363 79.679C720.646 83.0252 722.833 86.4949 724.867 89.992L723.139 90.9979ZM433.221 89.3509L431.503 88.3255C433.576 84.8529 435.805 81.4066 438.127 78.0828L439.767 79.2284C437.472 82.513 435.269 85.9188 433.221 89.3509H433.221ZM709.57 71.099C707.083 67.9598 704.454 64.8734 701.756 61.9251L703.23 60.5745C705.961 63.5579 708.622 66.6805 711.139 69.8568L709.57 71.099ZM447.02 69.6009L445.466 68.3411C448.017 65.1947 450.713 62.1019 453.479 59.1488L454.939 60.5159C452.205 63.4349 449.541 66.4915 447.02 69.6009ZM693.308 53.3309C690.4 50.578 687.359 47.8963 684.268 45.3597L685.535 43.8138C688.664 46.3797 691.741 49.0936 694.683 51.8788L693.308 53.3309ZM463.484 52.0194L462.125 50.5516C465.095 47.8021 468.202 45.1239 471.36 42.5921L472.611 44.1527C469.49 46.6551 466.419 49.3016 463.484 52.0194V52.0194ZM674.683 38.0531C671.415 35.7416 668.023 33.5199 664.601 31.4496L665.636 29.7386C669.099 31.8333 672.531 34.0814 675.837 36.4203L674.683 38.0531ZM482.274 36.9574L481.137 35.3119C484.467 33.013 487.922 30.8055 491.409 28.7499L492.424 30.4725C488.979 32.5042 485.564 34.6859 482.274 36.9574V36.9574ZM654.071 25.5858C650.506 23.7645 646.831 22.0516 643.147 20.4935L643.927 18.6517C647.654 20.2279 651.373 21.9618 654.981 23.8045L654.071 25.5858ZM503.012 24.7328L502.122 22.9418C505.745 21.143 509.479 19.453 513.222 17.9193L513.981 19.7699C510.282 21.2855 506.592 22.9554 503.012 24.7328V24.7328ZM631.885 16.202C628.102 14.9139 624.218 13.747 620.342 12.7338L620.848 10.7992C624.77 11.8241 628.701 13.0052 632.529 14.3085L631.885 16.202ZM525.275 15.6102L524.652 13.7098C528.496 12.4501 532.438 11.3138 536.368 10.3328L536.852 12.2733C532.968 13.2425 529.073 14.3651 525.275 15.6102L525.275 15.6102ZM608.581 10.1092C604.648 9.37923 600.639 8.78306 596.663 8.33677L596.886 6.34947C600.909 6.80113 604.967 7.40415 608.946 8.14247L608.581 10.1092ZM548.639 9.78013L548.296 7.80943C552.281 7.11558 556.344 6.55743 560.374 6.14976L560.575 8.13999C556.593 8.54232 552.577 9.09407 548.639 9.78011L548.639 9.78013ZM584.648 7.41978C580.643 7.25718 576.572 7.2357 572.598 7.35435L572.537 5.35535C576.56 5.23524 580.678 5.25623 584.73 5.42176L584.648 7.41978Z" fill="#3F3D56"/>
<path id="Vector_4" d="M739.573 129.791C739.038 127.888 738.46 125.966 737.856 124.079L739.761 123.47C740.372 125.379 740.957 127.323 741.499 129.249L739.573 129.791Z" fill="#3F3D56"/>
</g>
</g>
<g id="graph">
<path id="Vector_5" d="M155.07 435.649C173.468 435.649 188.383 434.53 188.383 433.15C188.383 431.771 173.468 430.652 155.07 430.652C136.672 430.652 121.758 431.771 121.758 433.15C121.758 434.53 136.672 435.649 155.07 435.649Z" fill="#6C63FF"/>
<path id="Vector_6" d="M420.737 314.891C439.135 314.891 454.049 313.773 454.049 312.393C454.049 311.013 439.135 309.894 420.737 309.894C402.339 309.894 387.424 311.013 387.424 312.393C387.424 313.773 402.339 314.891 420.737 314.891Z" fill="#6C63FF"/>
<path id="Vector_7" d="M748.864 189.137C767.262 189.137 782.177 188.018 782.177 186.638C782.177 185.259 767.262 184.14 748.864 184.14C730.466 184.14 715.552 185.259 715.552 186.638C715.552 188.018 730.466 189.137 748.864 189.137Z" fill="#6C63FF"/>
<path id="Vector_8" d="M735.665 178.436L635.495 278.606L636.909 280.02L737.079 179.85L735.665 178.436Z" fill="#3F3D56"/>
<path id="Vector_9" d="M606.454 291.405H438.226V293.405H606.454V291.405Z" fill="#3F3D56"/>
<path id="Vector_10" d="M407.521 305.04L313.43 399.131L314.844 400.545L408.935 306.454L407.521 305.04Z" fill="#3F3D56"/>
<path id="Vector_11" d="M284.989 412.163H172.559V414.163H284.989V412.163Z" fill="#3F3D56"/>
<path id="Vector_12" d="M141.997 424.822L30.2743 536.545L31.6884 537.959L143.411 426.236L141.997 424.822Z" fill="#3F3D56"/>
<path id="Vector_13" d="M155.07 431.652C151.413 431.652 147.839 430.568 144.798 428.536C141.758 426.505 139.388 423.617 137.988 420.239C136.589 416.86 136.222 413.143 136.936 409.556C137.649 405.97 139.41 402.675 141.996 400.089C144.582 397.503 147.876 395.742 151.463 395.029C155.049 394.316 158.767 394.682 162.145 396.081C165.524 397.48 168.411 399.85 170.443 402.891C172.475 405.931 173.559 409.506 173.559 413.163C173.554 418.065 171.604 422.764 168.138 426.231C164.672 429.697 159.972 431.646 155.07 431.652V431.652ZM155.07 396.674C151.809 396.674 148.621 397.641 145.909 399.452C143.198 401.264 141.084 403.839 139.836 406.852C138.588 409.865 138.261 413.181 138.897 416.38C139.534 419.578 141.104 422.516 143.41 424.822C145.716 427.128 148.654 428.699 151.853 429.335C155.051 429.972 158.367 429.645 161.38 428.397C164.393 427.149 166.968 425.036 168.78 422.324C170.592 419.612 171.559 416.424 171.559 413.163C171.554 408.791 169.815 404.6 166.724 401.509C163.633 398.418 159.442 396.679 155.07 396.674V396.674Z" fill="#3F3D56"/>
<path id="Vector_14" d="M302.478 431.652C298.821 431.652 295.246 430.568 292.205 428.536C289.165 426.505 286.795 423.617 285.396 420.238C283.996 416.86 283.63 413.142 284.344 409.556C285.057 405.969 286.818 402.675 289.404 400.089C291.989 397.503 295.284 395.742 298.87 395.029C302.457 394.316 306.175 394.682 309.553 396.081C312.931 397.48 315.819 399.85 317.851 402.891C319.882 405.931 320.967 409.506 320.967 413.163C320.961 418.065 319.012 422.765 315.545 426.231C312.079 429.697 307.38 431.647 302.478 431.652ZM302.478 396.674C299.216 396.674 296.028 397.641 293.317 399.453C290.605 401.264 288.491 403.84 287.243 406.853C285.995 409.866 285.669 413.181 286.305 416.38C286.941 419.578 288.512 422.516 290.818 424.823C293.124 427.129 296.062 428.699 299.261 429.335C302.459 429.972 305.775 429.645 308.788 428.397C311.801 427.149 314.376 425.035 316.188 422.324C318 419.612 318.967 416.424 318.967 413.163C318.962 408.791 317.223 404.6 314.132 401.509C311.04 398.417 306.849 396.679 302.478 396.674V396.674Z" fill="#3F3D56"/>
<path id="Vector_15" d="M420.737 310.894C417.08 310.894 413.505 309.81 410.465 307.778C407.424 305.747 405.055 302.859 403.655 299.481C402.256 296.102 401.89 292.385 402.603 288.798C403.317 285.212 405.078 281.917 407.663 279.332C410.249 276.746 413.543 274.985 417.13 274.272C420.716 273.558 424.434 273.924 427.812 275.324C431.191 276.723 434.078 279.093 436.11 282.133C438.142 285.174 439.226 288.748 439.226 292.405C439.221 297.307 437.271 302.007 433.805 305.473C430.338 308.939 425.639 310.889 420.737 310.894V310.894ZM420.737 275.916C417.476 275.916 414.288 276.884 411.576 278.695C408.864 280.507 406.751 283.083 405.503 286.096C404.255 289.109 403.929 292.424 404.565 295.622C405.201 298.821 406.772 301.759 409.078 304.065C411.384 306.371 414.322 307.941 417.52 308.578C420.719 309.214 424.034 308.887 427.047 307.639C430.06 306.391 432.635 304.278 434.447 301.566C436.259 298.854 437.226 295.666 437.226 292.405C437.221 288.033 435.482 283.842 432.391 280.751C429.3 277.66 425.108 275.921 420.737 275.916V275.916Z" fill="#3F3D56"/>
<path id="Vector_16" d="M623.942 310.894C620.286 310.894 616.711 309.81 613.671 307.778C610.63 305.747 608.26 302.859 606.861 299.481C605.462 296.102 605.095 292.385 605.809 288.798C606.522 285.212 608.283 281.917 610.869 279.332C613.455 276.746 616.749 274.985 620.336 274.272C623.922 273.558 627.64 273.924 631.018 275.324C634.396 276.723 637.284 279.093 639.316 282.133C641.347 285.174 642.432 288.748 642.432 292.405C642.426 297.307 640.476 302.007 637.01 305.473C633.544 308.939 628.844 310.889 623.942 310.894V310.894ZM623.942 275.916C620.681 275.916 617.493 276.884 614.782 278.695C612.07 280.507 609.957 283.083 608.709 286.096C607.461 289.109 607.134 292.424 607.771 295.622C608.407 298.821 609.977 301.759 612.283 304.065C614.589 306.371 617.527 307.941 620.726 308.578C623.925 309.214 627.24 308.887 630.253 307.639C633.266 306.391 635.841 304.278 637.653 301.566C639.465 298.854 640.432 295.666 640.432 292.405C640.427 288.033 638.688 283.842 635.597 280.751C632.505 277.66 628.314 275.921 623.942 275.916V275.916Z" fill="#3F3D56"/>
<path id="Vector_17" d="M748.864 185.14C745.207 185.14 741.633 184.056 738.592 182.024C735.552 179.992 733.182 177.105 731.783 173.726C730.383 170.348 730.017 166.63 730.731 163.044C731.444 159.457 733.205 156.163 735.791 153.577C738.377 150.992 741.671 149.231 745.257 148.517C748.844 147.804 752.561 148.17 755.94 149.569C759.318 150.969 762.206 153.338 764.237 156.379C766.269 159.419 767.353 162.994 767.354 166.651C767.348 171.553 765.398 176.252 761.932 179.718C758.466 183.185 753.766 185.134 748.864 185.14V185.14ZM748.864 150.162C745.603 150.162 742.415 151.129 739.703 152.941C736.992 154.753 734.879 157.328 733.631 160.341C732.383 163.354 732.056 166.67 732.692 169.868C733.329 173.067 734.899 176.005 737.205 178.311C739.511 180.617 742.449 182.187 745.648 182.823C748.846 183.459 752.162 183.133 755.175 181.885C758.188 180.637 760.763 178.523 762.575 175.812C764.387 173.1 765.354 169.912 765.354 166.651C765.348 162.279 763.61 158.088 760.518 154.997C757.427 151.906 753.236 150.167 748.864 150.162V150.162Z" fill="#3F3D56"/>
<path id="Vector_18" d="M18.4893 568.233C14.8324 568.233 11.2577 567.149 8.21705 565.117C5.17645 563.086 2.80656 560.198 1.40707 556.82C0.00758862 553.441 -0.358631 549.724 0.354727 546.137C1.06808 542.551 2.82898 539.256 5.41473 536.67C8.00048 534.084 11.295 532.323 14.8815 531.61C18.4681 530.897 22.1857 531.263 25.5642 532.662C28.9427 534.061 31.8304 536.431 33.862 539.472C35.8937 542.512 36.978 546.087 36.978 549.744C36.9725 554.646 35.0228 559.345 31.5567 562.812C28.0906 566.278 23.3911 568.228 18.4893 568.233V568.233ZM18.4893 533.255C15.228 533.255 12.0399 534.222 9.3282 536.033C6.61649 537.845 4.50294 540.42 3.25483 543.433C2.00672 546.447 1.68011 549.762 2.3163 552.961C2.95248 556.159 4.52289 559.097 6.82894 561.403C9.13498 563.71 12.0731 565.28 15.2717 565.916C18.4703 566.553 21.7858 566.226 24.7988 564.978C27.8119 563.73 30.3872 561.617 32.1991 558.905C34.0109 556.193 34.978 553.005 34.978 549.744C34.973 545.372 33.2343 541.181 30.1431 538.09C27.052 534.999 22.8609 533.26 18.4893 533.255V533.255Z" fill="#3F3D56"/>
</g>
<path id="first_tick" d="M155.07 304.065C150.696 304.065 146.364 304.926 142.322 306.6C138.28 308.275 134.608 310.728 131.515 313.822C128.421 316.915 125.968 320.587 124.294 324.629C122.619 328.671 121.758 333.002 121.758 337.377C121.758 355.775 155.07 416.494 155.07 416.494C155.07 416.494 188.383 355.775 188.383 337.377C188.383 333.002 187.521 328.671 185.847 324.629C184.173 320.587 181.719 316.915 178.626 313.822C175.532 310.728 171.86 308.275 167.818 306.6C163.777 304.926 159.445 304.065 155.07 304.065V304.065ZM155.07 354.866C151.611 354.866 148.23 353.84 145.354 351.919C142.478 349.997 140.236 347.266 138.912 344.07C137.589 340.874 137.242 337.358 137.917 333.965C138.592 330.573 140.258 327.456 142.704 325.011C145.149 322.565 148.266 320.899 151.658 320.224C155.051 319.549 158.567 319.896 161.763 321.219C164.959 322.543 167.69 324.785 169.612 327.661C171.533 330.537 172.559 333.918 172.559 337.377C172.559 342.016 170.717 346.464 167.437 349.744C164.157 353.024 159.709 354.866 155.07 354.866V354.866Z" fill="#3445B4"/>
<path id="second_tick" d="M420.737 179.143C411.902 179.143 403.429 182.653 397.181 188.9C390.934 195.147 387.424 203.621 387.424 212.456C387.424 230.853 420.737 291.573 420.737 291.573C420.737 291.573 454.049 230.853 454.049 212.456C454.049 208.081 453.188 203.749 451.514 199.707C449.839 195.666 447.386 191.993 444.292 188.9C441.199 185.807 437.527 183.353 433.485 181.679C429.443 180.005 425.112 179.143 420.737 179.143ZM420.737 229.945C417.278 229.945 413.897 228.919 411.02 226.997C408.144 225.075 405.903 222.344 404.579 219.148C403.255 215.953 402.909 212.436 403.584 209.044C404.259 205.651 405.924 202.535 408.37 200.089C410.816 197.643 413.932 195.977 417.325 195.303C420.717 194.628 424.234 194.974 427.43 196.298C430.625 197.621 433.357 199.863 435.278 202.739C437.2 205.615 438.226 208.997 438.226 212.456C438.226 217.094 436.383 221.542 433.103 224.822C429.824 228.102 425.375 229.945 420.737 229.945Z" fill="#3445B4"/>
<path id="third_tick" d="M748.864 59.2183C744.49 59.2183 740.158 60.08 736.116 61.7541C732.075 63.4282 728.402 65.8819 725.309 68.9753C722.215 72.0686 719.762 75.741 718.088 79.7826C716.414 83.8243 715.552 88.1561 715.552 92.5307C715.552 110.929 748.864 171.648 748.864 171.648C748.864 171.648 782.177 110.929 782.177 92.5307C782.177 88.1561 781.315 83.8243 779.641 79.7826C777.967 75.741 775.513 72.0686 772.42 68.9753C769.326 65.8819 765.654 63.4282 761.612 61.7541C757.571 60.08 753.239 59.2183 748.864 59.2183V59.2183ZM748.864 110.02C745.405 110.02 742.024 108.994 739.148 107.072C736.272 105.151 734.03 102.419 732.707 99.2235C731.383 96.0278 731.037 92.5114 731.711 89.1188C732.386 85.7263 734.052 82.61 736.498 80.1642C738.944 77.7183 742.06 76.0526 745.452 75.3778C748.845 74.703 752.361 75.0493 755.557 76.373C758.753 77.6967 761.484 79.9383 763.406 82.8144C765.328 85.6904 766.353 89.0718 766.353 92.5308C766.353 97.1691 764.511 101.618 761.231 104.897C757.951 108.177 753.503 110.02 748.864 110.02V110.02Z" fill="#3445B4"/>
<g id="circles">
<path id="Vector_19" d="M480.32 679.049C490.275 679.049 498.346 670.978 498.346 661.023C498.346 651.068 490.275 642.998 480.32 642.998C470.365 642.998 462.295 651.068 462.295 661.023C462.295 670.978 470.365 679.049 480.32 679.049Z" fill="#F1F1F1"/>
<path id="Vector_20" d="M592.467 602.803C602.422 602.803 610.492 594.733 610.492 584.778C610.492 574.823 602.422 566.753 592.467 566.753C582.512 566.753 574.442 574.823 574.442 584.778C574.442 594.733 582.512 602.803 592.467 602.803Z" fill="#F1F1F1"/>
<path id="Vector_21" d="M453.779 531.81C463.734 531.81 471.804 523.739 471.804 513.784C471.804 503.829 463.734 495.759 453.779 495.759C443.824 495.759 435.754 503.829 435.754 513.784C435.754 523.739 443.824 531.81 453.779 531.81Z" fill="#F1F1F1"/>
</g>
<g id="girl">
<g id="Group 2">
<path id="Vector_22" d="M1018.94 90.8974C1011.89 111.773 1001.08 130.794 979.043 130.794C957.009 130.794 940.388 112.897 939.146 90.8974C937.56 62.7868 956.5 50.8844 979.043 51.0008C1005.67 51.1384 1027.31 66.1231 1018.94 90.8974Z" fill="#2F2E41"/>
<path id="Vector_23" d="M1017.89 87.7477H939.146V187.489H1017.89V87.7477Z" fill="#2F2E41"/>
<path id="Vector_24" d="M1020.2 162.056H1026.9C1026.9 162.056 1043.27 182.893 1035.83 211.171C1028.39 239.45 1034.34 244.659 1034.34 244.659C1034.34 244.659 1044.03 275.283 1033.61 321.422C1023.19 367.561 1043.27 380.1 1043.27 380.1L1024.67 342.891L1014.25 244.659L1020.2 162.056Z" fill="#575A89"/>
<path id="Vector_25" d="M996.76 125.963C996.76 125.963 990.807 149.777 993.784 149.777C996.76 149.777 1007.18 162.428 1007.18 162.428L1013.88 186.985L1008.67 204.846L990.807 201.125L968.481 176.567L961.784 169.869L955.83 148.288C955.83 148.288 963.272 139.358 958.063 131.916C952.854 124.474 996.76 125.963 996.76 125.963Z" fill="#FBBEBE"/>
<path id="Vector_26" d="M816.669 192.195L800.297 165.404C800.297 165.404 782.624 126.302 769.973 140.441C757.322 154.581 789.134 183.265 789.134 183.265L805.506 204.846L816.669 192.195Z" fill="#FBBEBE"/>
<path id="Vector_27" d="M1033.97 425.123L1022.06 512.191C1022.06 512.191 1023.55 518.889 1008.67 543.447C993.784 568.005 953.598 621.586 953.598 621.586L941.691 599.26C941.691 599.26 955.83 528.563 980.388 513.68L977.412 406.518L1033.97 425.123Z" fill="#FBBEBE"/>
<path id="Vector_28" d="M941.691 590.33L958.063 621.586C958.063 621.586 944.668 659.539 949.877 663.26C955.086 666.981 961.784 700.469 947.644 696.748C933.505 693.027 922.342 678.143 922.342 675.911C922.342 673.678 930.528 642.423 926.063 634.981C921.598 627.539 918.621 625.307 918.621 625.307L907.459 643.911L903.738 641.679L922.342 610.423C922.342 610.423 924.575 604.47 933.505 600.749L941.691 590.33Z" fill="#2F2E41"/>
</g>
<g id="Group 3">
<g id="Group 1">
<path id="Vector_29" opacity="0.1" d="M1019.2 167H1025.9C1025.9 167 1042.27 187.837 1034.83 216.116C1027.39 244.395 1033.34 249.604 1033.34 249.604C1033.34 249.604 1043.03 280.227 1032.61 326.366C1022.19 372.505 1042.27 385.044 1042.27 385.044L1023.67 347.835L1013.25 249.604L1019.2 167Z" fill="black"/>
<path id="Vector_30" opacity="0.1" d="M995.763 128.459C995.763 128.459 989.809 152.273 992.786 152.273C995.763 152.273 1006.18 164.924 1006.18 164.924L1012.88 189.482L1007.67 207.342L989.809 203.621L967.484 179.063L960.786 172.366L954.833 150.785C954.833 150.785 962.275 141.854 957.065 134.413C951.856 126.971 995.763 128.459 995.763 128.459Z" fill="black"/>
<path id="Vector_31" opacity="0.1" d="M1032.97 427.619L1021.06 514.688C1021.06 514.688 1022.55 521.386 1007.67 545.944C992.786 570.501 952.6 624.082 952.6 624.082L940.694 601.757C940.694 601.757 954.833 531.06 979.391 516.176L976.414 409.015L1032.97 427.619Z" fill="black"/>
<path id="Vector_32" opacity="0.1" d="M940.694 592.827L957.065 624.082C957.065 624.082 943.67 662.035 948.879 665.756C954.089 669.477 960.786 702.965 946.647 699.244C932.508 695.523 921.345 680.64 921.345 678.407C921.345 676.175 929.531 644.919 925.066 637.477C920.601 630.036 917.624 627.803 917.624 627.803L906.461 646.408L902.74 644.175L921.345 612.92C921.345 612.92 923.577 606.966 932.508 603.245L940.694 592.827Z" fill="black"/>
<path id="Vector_33" d="M976.588 415.266C976.588 415.266 982.368 497.572 969.716 519.153V626.315L952.6 628.547C952.6 628.547 918.035 571.813 930.686 516C943.337 460.187 917.624 409.015 917.624 409.015L976.588 415.266Z" fill="#FBBEBE"/>
<path id="Vector_34" d="M972.321 146.692C989.583 146.692 1003.58 132.698 1003.58 115.436C1003.58 98.1743 989.583 84.1807 972.321 84.1807C955.059 84.1807 941.066 98.1743 941.066 115.436C941.066 132.698 955.059 146.692 972.321 146.692Z" fill="#FBBEBE"/>
<path id="Vector_35" d="M1003.95 197.668L972.693 158.227L954.833 146.32L947.391 155.994L926.554 161.947C926.554 161.947 913.159 164.924 899.02 181.296C884.88 197.668 859.578 207.342 859.578 207.342L838.741 203.621C838.741 203.621 814.183 192.459 814.183 189.482C814.183 186.505 792.602 209.575 797.811 218.505C803.021 227.435 814.183 238.598 820.137 244.551C826.09 250.505 828.323 267.621 864.787 262.412C901.252 257.202 914.647 239.342 914.647 239.342C914.647 239.342 921.345 273.574 940.694 280.272C960.042 286.969 1023.3 291.435 1023.3 291.435L1036.69 246.784C1036.69 246.784 1051.58 227.435 1031.48 199.156C1031.48 199.156 1031.1 183.341 1028.94 172.817C1028.1 168.723 1026.99 165.43 1025.53 164.18C1020.32 159.715 992.786 152.273 992.786 152.273C992.786 152.273 997.251 167.157 999.484 167.901C1001.72 168.645 1006.93 193.947 1003.95 197.668Z" fill="white"/>
<path id="Vector_36" d="M899.063 516.371C939.151 511.782 962.49 522.6 972.902 530.847C974.838 532.29 976.661 534.113 978.331 536.276C979.095 537.338 979.461 538.164 979.461 538.662C979.461 542.596 1034.39 550.463 1054.29 542.596C1074.19 534.729 1040.76 365.582 1032 351.158C1023.24 336.735 1027.96 283.945 1027.96 283.945C1027.96 283.945 1010.51 277.73 1005.73 280.353C1000.95 282.975 976.277 276.419 967.521 268.552C958.765 260.684 947.62 265.929 940.456 263.307C937.256 262.14 935.64 264.107 934.836 266.65C933.585 270.466 931.695 273.611 929.391 275.711C912.492 291.747 898.928 402.624 888.715 463.923C877.57 530.795 899.063 516.371 899.063 516.371Z" fill="#2F2E41"/>
<path id="Vector_37" d="M972.693 619.617L975.67 635.989C975.67 635.989 991.298 658.314 986.833 676.919C986.833 676.919 990.554 701.477 1003.95 708.174C1017.34 714.872 1006.18 730.5 993.53 729.756C980.879 729.011 968.972 730.5 967.484 726.779C965.996 723.058 957.066 686.593 957.066 686.593L954.622 729.264L947.181 730.009L949.624 680.64C949.624 680.64 943.67 669.477 951.856 650.873L949.79 622.315C949.79 622.315 970.461 627.059 972.693 619.617Z" fill="#2F2E41"/>
<path id="Vector_38" d="M959.382 72.3957C959.382 72.3957 959.036 70.4688 945.498 75.5454C931.961 80.622 923.846 118.085 930.615 140.084C933.342 148.949 931.123 155.341 927.502 159.814C913.91 176.597 919.261 201.804 939.057 210.434C939.616 210.678 940.186 210.919 940.768 211.157L949.229 216.233C949.229 216.233 938.443 202.041 943.841 183.887C948.528 168.419 949.107 151.996 945.52 136.237C944.901 133.578 944.197 130.838 943.398 128.041C936.63 104.35 939.922 107.086 963.613 83.395C963.613 83.395 977.15 93.5483 988.996 98.6249C1000.84 103.702 1010.99 108.778 1002.53 125.7C994.072 142.622 973.766 157.852 987.304 179.851C1000.84 201.85 1002.53 193.389 1000.84 201.85L999.149 210.311L1009.3 200.157L1002.53 213.695C1002.53 213.695 1024.53 213.695 1031.3 196.773L1034.69 200.157C1034.69 200.157 1048.22 176.466 1022.84 154.468C1022.84 154.468 1014.38 149.391 1026.22 132.469C1038.07 115.547 1028.97 79.1645 1013.74 72.3956C998.513 65.6268 959.382 72.3957 959.382 72.3957Z" fill="#2F2E41"/>
<path id="Vector_39" d="M978.046 61.8966C986.743 61.8966 993.794 54.8456 993.794 46.1479C993.794 37.4502 986.743 30.3993 978.046 30.3993C969.348 30.3993 962.297 37.4502 962.297 46.1479C962.297 54.8456 969.348 61.8966 978.046 61.8966Z" fill="#2F2E41"/>
<path id="Vector_40" d="M959.147 37.7486C959.147 33.8446 960.598 30.0799 963.217 27.1847C965.836 24.2894 969.437 22.4701 973.321 22.0795C972.803 22.0281 972.278 22 971.746 22C967.569 22 963.564 23.6592 960.61 26.6127C957.657 29.5661 955.997 33.5719 955.997 37.7487C955.997 41.9255 957.657 45.9312 960.61 48.8846C963.564 51.8381 967.569 53.4973 971.746 53.4973C972.278 53.4973 972.803 53.4692 973.321 53.4178C969.437 53.0272 965.836 51.2079 963.217 48.3126C960.598 45.4174 959.147 41.6527 959.147 37.7486V37.7486Z" fill="#2F2E41"/>
</g>
</g>
</g>
</g>
</g>
<defs>
<filter id="filter0_d" x="458.536" y="0" width="679.911" height="713.776" filterUnits="userSpaceOnUse" color-interpolation-filters="sRGB">
<feFlood flood-opacity="0" result="BackgroundImageFix"/>
<feColorMatrix in="SourceAlpha" type="matrix" values="0 0 0 0 0 0 0 0 0 0 0 0 0 0 0 0 0 0 127 0"/>
<feOffset dy="4"/>
<feGaussianBlur stdDeviation="2"/>
<feColorMatrix type="matrix" values="0 0 0 0 0 0 0 0 0 0 0 0 0 0 0 0 0 0 0.25 0"/>
<feBlend mode="normal" in2="BackgroundImageFix" result="effect1_dropShadow"/>
<feBlend mode="normal" in="SourceGraphic" in2="effect1_dropShadow" result="shape"/>
</filter>
<linearGradient id="paint0_linear" x1="1015" y1="52.5" x2="798" y2="706" gradientUnits="userSpaceOnUse">
<stop stop-color="#2FE1C9"/>
<stop offset="0.729167" stop-color="#328FBE"/>
<stop offset="0.9998" stop-color="#3445B4"/>
<stop offset="0.9999" stop-color="#3275BA" stop-opacity="0.807858"/>
<stop offset="1" stop-color="#2FE1C9" stop-opacity="0.37"/>
</linearGradient>
<clipPath id="clip0">
<rect width="1134.45" height="709.784" fill="white"/>
</clipPath>
</defs>
</svg>
